<svg width="161" height="58" viewBox="99 91 161 58" xmlns="http://www.w3.org/2000/svg" xmlns:xlink="http://www.w3.org/1999/xlink"><defs><path id="a" d="M0 56.341h159.876V0H0z"/></defs><g fill="none" fill-rule="evenodd" transform="translate(100 92)"><path d="M30.767.008c.373.174.61.534.908.82.485.422.846.981 1.318 1.416.585.559.958 1.266 1.443 1.9.846 1.28 1.592 2.645 1.978 4.135.398 1.02.46 2.124.435 3.217.025.994-.249 1.975-.697 2.87-.77 1.353-2.164 2.26-3.62 2.744-1.815.435-3.818.51-5.571-.261-.635-.348-1.356-.584-1.866-1.13-1.182-.969-1.866-2.546-1.642-4.074.348-2.72 1.978-5.054 3.72-7.066.161.298.024.645.136.956.15.658.386 1.354.883 1.825.61-.558 1.256-1.117 1.779-1.763.473-.696.858-1.465 1.02-2.285.037-1.043.137-2.136-.262-3.13l.038-.174z" fill="#fd5068"/><path d="M30.767.008c.373.174.61.534.908.82.485.422.846.981 1.318 1.416.585.559.958 1.266 1.443 1.9.846 1.28 1.592 2.645 1.978 4.135.398 1.02.46 2.124.435 3.217.025.994-.249 1.975-.697 2.87-.77 1.353-2.164 2.26-3.62 2.744-1.815.435-3.818.51-5.571-.261-.635-.348-1.356-.584-1.866-1.13-1.182-.969-1.866-2.546-1.642-4.074.348-2.72 1.978-5.054 3.72-7.066.161.298.024.645.136.956.15.658.386 1.354.883 1.825.61-.558 1.256-1.117 1.779-1.763.473-.696.858-1.465 1.02-2.285.037-1.043.137-2.136-.262-3.13l.038-.174z" stroke="#fd5068" stroke-width=".036"/><path d="M.006 46.99c1.158.09 2.216.057 3.175-.1.958-.155 1.749-.544 2.373-1.168.446-.4.846-1.112 1.204-2.136.356-1.023.534-2.78.534-5.273 0-1.112.045-2.27.134-3.471.089-1.202.29-2.392.602-3.571a16.597 16.597 0 0 1 1.337-3.438c.579-1.112 1.38-2.136 2.406-3.07 2.808-2.76 6.686-3.939 11.632-3.538v8.544c-2.451-.267-4.3.223-5.548 1.468a5.542 5.542 0 0 0-.635.768c-.2.29-.38.7-.535 1.235-.157.534-.29 1.201-.401 2.002-.112.801-.167 1.825-.167 3.07a49.31 49.31 0 0 1-.134 3.572 21.095 21.095 0 0 1-.601 3.67 17.012 17.012 0 0 1-1.338 3.539 11.517 11.517 0 0 1-2.34 3.104c-1.426 1.38-3.12 2.326-5.08 2.836-1.962.512-4.168.679-6.618.501V46.99z" fill="#fd5068"/><path d="M.006 46.99c1.158.09 2.216.057 3.175-.1.958-.155 1.749-.544 2.373-1.168.446-.4.846-1.112 1.204-2.136.356-1.023.534-2.78.534-5.273 0-1.112.045-2.27.134-3.471.089-1.202.29-2.392.602-3.571a16.597 16.597 0 0 1 1.337-3.438c.579-1.112 1.38-2.136 2.406-3.07 2.808-2.76 6.686-3.939 11.632-3.538v8.544c-2.451-.267-4.3.223-5.548 1.468a5.542 5.542 0 0 0-.635.768c-.2.29-.38.7-.535 1.235-.157.534-.29 1.201-.401 2.002-.112.801-.167 1.825-.167 3.07a49.31 49.31 0 0 1-.134 3.572 21.095 21.095 0 0 1-.601 3.67 17.012 17.012 0 0 1-1.338 3.539 11.517 11.517 0 0 1-2.34 3.104c-1.426 1.38-3.12 2.326-5.08 2.836-1.962.512-4.168.679-6.618.501V46.99z" stroke="#fd5068" stroke-width=".036"/><mask id="b" fill="#fff"><use xlink:href="#a"/></mask><path fill="#fd5068" mask="url(#b)" d="M25.693 55.534h8.825V21.158h-8.825z"/><path stroke="#fd5068" stroke-width=".036" mask="url(#b)" d="M25.693 55.534h8.825V21.158h-8.825z"/><path d="M37.665 35.643c0-2.18.368-4.206 1.103-6.074.735-1.87 1.782-3.493 3.142-4.873 1.36-1.379 2.985-2.459 4.88-3.238 1.894-.778 4.022-1.168 6.385-1.168 2.406 0 4.556.379 6.45 1.135 1.894.757 3.499 1.814 4.814 3.17 1.314 1.359 2.317 2.97 3.008 4.84.69 1.869 1.036 3.938 1.036 6.208v19.891H59.66V35.443c0-.49-.067-1.102-.2-1.836-.134-.734-.425-1.457-.87-2.17-.446-.711-1.092-1.311-1.938-1.802-.847-.489-2.006-.734-3.476-.734-1.962 0-3.566.601-4.814 1.802-1.248 1.202-1.872 2.782-1.872 4.74v20.091h-8.824V35.643z" fill="#fd5068" mask="url(#b)"/><path d="M37.665 35.643c0-2.18.368-4.206 1.103-6.074.735-1.87 1.782-3.493 3.142-4.873 1.36-1.379 2.985-2.459 4.88-3.238 1.894-.778 4.022-1.168 6.385-1.168 2.406 0 4.556.379 6.45 1.135 1.894.757 3.499 1.814 4.814 3.17 1.314 1.359 2.317 2.97 3.008 4.84.69 1.869 1.036 3.938 1.036 6.208v19.891H59.66V35.443c0-.49-.067-1.102-.2-1.836-.134-.734-.425-1.457-.87-2.17-.446-.711-1.092-1.311-1.938-1.802-.847-.489-2.006-.734-3.476-.734-1.962 0-3.566.601-4.814 1.802-1.248 1.202-1.872 2.782-1.872 4.74v20.091h-8.824V35.643z" stroke="#fd5068" stroke-width=".036" mask="url(#b)"/><path d="M96.3 38.446c0-1.379-.235-2.67-.706-3.871a10.134 10.134 0 0 0-1.912-3.138 8.994 8.994 0 0 0-2.818-2.102 7.865 7.865 0 0 0-3.423-.768c-1.208 0-2.349.245-3.422.735A8.564 8.564 0 0 0 81.2 31.37c-.806.89-1.443 1.936-1.913 3.137s-.704 2.514-.704 3.938c0 1.38.234 2.66.704 3.838.47 1.18 1.107 2.203 1.913 3.071a8.769 8.769 0 0 0 2.818 2.036 8.137 8.137 0 0 0 3.422.734 7.856 7.856 0 0 0 3.423-.767 9.223 9.223 0 0 0 2.818-2.07c.805-.867 1.443-1.891 1.912-3.07.47-1.18.706-2.437.706-3.772zm8.824-.066c0 2.492-.434 4.828-1.304 7.008-.87 2.181-2.084 4.083-3.643 5.707-1.561 1.625-3.42 2.904-5.582 3.838-2.162.935-4.536 1.402-7.12 1.402-2.63 0-5.025-.468-7.186-1.403-2.162-.937-4.023-2.219-5.582-3.846-1.56-1.627-2.775-3.534-3.644-5.718-.869-2.184-1.303-4.525-1.303-7.022 0-2.452.434-4.77 1.303-6.954.87-2.184 2.05-4.101 3.543-5.751a16.435 16.435 0 0 1 5.215-3.88c1.982-.936 4.111-1.404 6.384-1.404 4.1 0 7.465 1.347 10.095 4.037V5.872h8.824V38.38z" fill="#fd5068" mask="url(#b)"/><path d="M96.3 38.446c0-1.379-.235-2.67-.706-3.871a10.134 10.134 0 0 0-1.912-3.138 8.994 8.994 0 0 0-2.818-2.102 7.865 7.865 0 0 0-3.423-.768c-1.208 0-2.349.245-3.422.735A8.564 8.564 0 0 0 81.2 31.37c-.806.89-1.443 1.936-1.913 3.137s-.704 2.514-.704 3.938c0 1.38.234 2.66.704 3.838.47 1.18 1.107 2.203 1.913 3.071a8.769 8.769 0 0 0 2.818 2.036 8.137 8.137 0 0 0 3.422.734 7.856 7.856 0 0 0 3.423-.767 9.223 9.223 0 0 0 2.818-2.07c.805-.867 1.443-1.891 1.912-3.07.47-1.18.706-2.437.706-3.772zm8.824-.066c0 2.492-.434 4.828-1.304 7.008-.87 2.181-2.084 4.083-3.643 5.707-1.561 1.625-3.42 2.904-5.582 3.838-2.162.935-4.536 1.402-7.12 1.402-2.63 0-5.025-.468-7.186-1.403-2.162-.937-4.023-2.219-5.582-3.846-1.56-1.627-2.775-3.534-3.644-5.718-.869-2.184-1.303-4.525-1.303-7.022 0-2.452.434-4.77 1.303-6.954.87-2.184 2.05-4.101 3.543-5.751a16.435 16.435 0 0 1 5.215-3.88c1.982-.936 4.111-1.404 6.384-1.404 4.1 0 7.465 1.347 10.095 4.037V5.872h8.824V38.38z" stroke="#fd5068" stroke-width=".036" mask="url(#b)"/><path d="M130.48 31.104a8.188 8.188 0 0 0-2.942-2.27c-1.159-.534-2.451-.8-3.877-.8-1.293 0-2.496.244-3.61.733a8.922 8.922 0 0 0-2.908 2.036c-.825.868-1.493 1.902-2.005 3.104-.513 1.202-.792 2.537-.836 4.005l16.178-6.808zm9.894 13.483c-1.026 3.516-2.975 6.353-5.85 8.511-2.874 2.159-6.474 3.237-10.796 3.237-2.451 0-4.746-.467-6.885-1.401a17.853 17.853 0 0 1-5.616-3.839c-1.604-1.624-2.864-3.526-3.777-5.707-.914-2.18-1.37-4.516-1.37-7.008s.456-4.84 1.37-7.043c.913-2.202 2.173-4.115 3.777-5.74a18.351 18.351 0 0 1 5.616-3.871c2.139-.957 4.434-1.436 6.885-1.436 2.05 0 4.011.324 5.883.968a16.267 16.267 0 0 1 5.047 2.803c1.493 1.225 2.763 2.727 3.81 4.506 1.047 1.78 1.772 3.828 2.173 6.141l-24.333 10.213a9.535 9.535 0 0 0 3.209 2.703c1.247.646 2.628.968 4.144.968a9.429 9.429 0 0 0 4.145-.968c1.337-.644 2.384-1.657 3.142-3.037h9.426z" fill="#fd5068" mask="url(#b)"/><path d="M130.48 31.104a8.188 8.188 0 0 0-2.942-2.27c-1.159-.534-2.451-.8-3.877-.8-1.293 0-2.496.244-3.61.733a8.922 8.922 0 0 0-2.908 2.036c-.825.868-1.493 1.902-2.005 3.104-.513 1.202-.792 2.537-.836 4.005l16.178-6.808zm9.894 13.483c-1.026 3.516-2.975 6.353-5.85 8.511-2.874 2.159-6.474 3.237-10.796 3.237-2.451 0-4.746-.467-6.885-1.401a17.853 17.853 0 0 1-5.616-3.839c-1.604-1.624-2.864-3.526-3.777-5.707-.914-2.18-1.37-4.516-1.37-7.008s.456-4.84 1.37-7.043c.913-2.202 2.173-4.115 3.777-5.74a18.351 18.351 0 0 1 5.616-3.871c2.139-.957 4.434-1.436 6.885-1.436 2.05 0 4.011.324 5.883.968a16.267 16.267 0 0 1 5.047 2.803c1.493 1.225 2.763 2.727 3.81 4.506 1.047 1.78 1.772 3.828 2.173 6.141l-24.333 10.213a9.535 9.535 0 0 0 3.209 2.703c1.247.646 2.628.968 4.144.968a9.429 9.429 0 0 0 4.145-.968c1.337-.644 2.384-1.657 3.142-3.037h9.426z" stroke="#fd5068" stroke-width=".036" mask="url(#b)"/><path d="M159.87 28.768c-2.808-.49-5.07-.078-6.785 1.235-1.716 1.313-2.574 3.193-2.574 5.64v19.891h-8.824V35.643c0-2.447.411-4.673 1.236-6.675.825-2.003 2.016-3.694 3.577-5.073 1.56-1.38 3.464-2.38 5.716-3.004 2.25-.622 4.802-.756 7.654-.4v8.277z" fill="#fd5068" mask="url(#b)"/><path d="M159.87 28.768c-2.808-.49-5.07-.078-6.785 1.235-1.716 1.313-2.574 3.193-2.574 5.64v19.891h-8.824V35.643c0-2.447.411-4.673 1.236-6.675.825-2.003 2.016-3.694 3.577-5.073 1.56-1.38 3.464-2.38 5.716-3.004 2.25-.622 4.802-.756 7.654-.4v8.277z" stroke="#fd5068" stroke-width=".036" mask="url(#b)"/></g></svg>