<svg width="28" height="35" viewBox="179 173 28 35" xmlns="http://www.w3.org/2000/svg"><path d="M193 207.234c1.313 0 13.125-13.095 13.125-20.343 0-7.25-5.876-13.125-13.125-13.125s-13.125 5.876-13.125 13.125c0 7.248 11.813 20.343 13.125 20.343z" fill="#FFF" fill-rule="evenodd"/><path d="M193.097 179.672c.238.11.388.34.579.523.31.269.54.625.84.902.373.357.611.808.92 1.212.54.816 1.016 1.687 1.262 2.637.254.65.293 1.354.277 2.051.016.634-.158 1.26-.444 1.83-.492.863-1.38 1.441-2.308 1.75-1.158.277-2.435.325-3.553-.166-.405-.222-.865-.373-1.19-.721-.753-.618-1.19-1.623-1.047-2.598.222-1.734 1.261-3.223 2.372-4.506.103.19.015.412.087.61.095.42.246.863.563 1.164.389-.356.801-.713 1.134-1.124.302-.444.547-.935.65-1.458.025-.665.088-1.362-.166-1.995l.024-.111z" fill="#fd5068" fill-rule="evenodd"/></svg>